<svg xmlns="http://www.w3.org/2000/svg" width="930" height="540" viewBox="0 0 930 540">
  <rect width="100%" height="100%" fill="#f8fafc"/>
  <style>
    .title{font:700 28px -apple-system,BlinkMacSystemFont,'Segoe UI',Arial,sans-serif;fill:#17202a}
    .subtitle{font:500 15px -apple-system,BlinkMacSystemFont,'Segoe UI',Arial,sans-serif;fill:#64748b}
    .label{font:600 15px -apple-system,BlinkMacSystemFont,'Segoe UI',Arial,sans-serif;fill:#17202a}
    .small{font:500 13px -apple-system,BlinkMacSystemFont,'Segoe UI',Arial,sans-serif;fill:#64748b}
    .tiny{font:500 11px -apple-system,BlinkMacSystemFont,'Segoe UI',Arial,sans-serif;fill:#64748b}
    .num{font:700 17px -apple-system,BlinkMacSystemFont,'Segoe UI',Arial,sans-serif;fill:#17202a}
    .claim{font:700 18px -apple-system,BlinkMacSystemFont,'Segoe UI',Arial,sans-serif;fill:#0f766e}
  </style>
<text x="44" y="48" class="title">Why temporal confidence is needed</text>
<text x="44" y="74" class="subtitle">Co-negative can find real shared-opposition structure, but Stage 2 checks whether timing evidence is stable.</text><rect x="70" y="118" width="360" height="325" rx="16" fill="white" stroke="#d7dee8"/>
<text x="94" y="156" class="label">harvested</text>
<text x="94" y="190" class="small">Stage 1 structure</text>
<text x="114" y="222" class="num">8</text><text x="165" y="222" class="small">members</text>
<text x="114" y="252" class="num">7</text><text x="165" y="252" class="small">Tier 1 co-negative members</text>
<text x="114" y="282" class="num">11</text><text x="165" y="282" class="small">shared negative-target rows</text>
<line x1="94" y1="306" x2="406" y2="306" stroke="#d7dee8"/>
<text x="94" y="335" class="small">Stage 2 timing</text>
<text x="114" y="367" class="num">1</text><text x="165" y="367" class="small">strong labels</text>
<text x="114" y="397" class="num">0</text><text x="165" y="397" class="small">moderate labels</text>
<rect x="280" y="344" width="110" height="28" rx="7" fill="#0f766e" opacity="0.15"/>
<text x="294" y="364" class="small">robust: 1</text>
<rect x="280" y="382" width="110" height="28" rx="7" fill="#dc2626" opacity="0.12"/>
<text x="294" y="402" class="small">fragile: 0</text><rect x="500" y="118" width="360" height="325" rx="16" fill="white" stroke="#d7dee8"/>
<text x="524" y="156" class="label">JG87919</text>
<text x="524" y="190" class="small">Stage 1 structure</text>
<text x="544" y="222" class="num">15</text><text x="595" y="222" class="small">members</text>
<text x="544" y="252" class="num">12</text><text x="595" y="252" class="small">Tier 1 co-negative members</text>
<text x="544" y="282" class="num">20</text><text x="595" y="282" class="small">shared negative-target rows</text>
<line x1="524" y1="306" x2="836" y2="306" stroke="#d7dee8"/>
<text x="524" y="335" class="small">Stage 2 timing</text>
<text x="544" y="367" class="num">1</text><text x="595" y="367" class="small">strong labels</text>
<text x="544" y="397" class="num">2</text><text x="595" y="397" class="small">moderate labels</text>
<rect x="710" y="344" width="110" height="28" rx="7" fill="#d97706" opacity="0.15"/>
<text x="724" y="364" class="small">robust: 0</text>
<rect x="710" y="382" width="110" height="28" rx="7" fill="#dc2626" opacity="0.12"/>
<text x="724" y="402" class="small">fragile: 3</text><text x="76" y="500" class="claim">Same lesson: co-negative discovers candidate groups; temporal confidence decides how trustworthy timing evidence is.</text>
</svg>